<mxfile host="app.diagrams.net" agent="Mozilla/5.0 (Windows NT 10.0; Win64; x64) AppleWebKit/537.36 (KHTML, like Gecko) Chrome/126.0.0.0 Safari/537.36" version="24.7.6">
  <diagram name="Page-1" id="EbPH72NPH-QS_WS91hhd">
    <mxGraphModel dx="830" dy="515" grid="1" gridSize="10" guides="1" tooltips="1" connect="1" arrows="1" fold="1" page="1" pageScale="1" pageWidth="850" pageHeight="1100" math="0" shadow="0">
      <root>
        <mxCell id="0" />
        <mxCell id="1" parent="0" />
        <mxCell id="r3WVHsvuP0XsaqlXkAE_-1" value="pesanan makanan" style="swimlane;childLayout=stackLayout;resizeParent=1;resizeParentMax=0;startSize=20;html=1;" parent="1" vertex="1">
          <mxGeometry x="240" y="70" width="375" height="760" as="geometry" />
        </mxCell>
        <mxCell id="r3WVHsvuP0XsaqlXkAE_-7" value="Konsumen" style="swimlane;startSize=20;html=1;" parent="r3WVHsvuP0XsaqlXkAE_-1" vertex="1">
          <mxGeometry y="20" width="130" height="740" as="geometry" />
        </mxCell>
        <mxCell id="9cLpoxYKBSwU8mDdFY53-8" value="" style="edgeStyle=orthogonalEdgeStyle;rounded=0;orthogonalLoop=1;jettySize=auto;html=1;" edge="1" parent="r3WVHsvuP0XsaqlXkAE_-7" source="9cLpoxYKBSwU8mDdFY53-5" target="9cLpoxYKBSwU8mDdFY53-7">
          <mxGeometry relative="1" as="geometry" />
        </mxCell>
        <mxCell id="9cLpoxYKBSwU8mDdFY53-5" value="menu" style="shape=document;whiteSpace=wrap;html=1;boundedLbl=1;" vertex="1" parent="r3WVHsvuP0XsaqlXkAE_-7">
          <mxGeometry x="9.999999999999545" y="120" width="90" height="60" as="geometry" />
        </mxCell>
        <mxCell id="9cLpoxYKBSwU8mDdFY53-7" value="memesan&amp;nbsp;&lt;div&gt;makanan&lt;/div&gt;" style="verticalLabelPosition=middle;verticalAlign=middle;html=1;shape=trapezoid;perimeter=trapezoidPerimeter;whiteSpace=wrap;size=0.23;arcSize=10;flipV=1;labelPosition=center;align=center;" vertex="1" parent="r3WVHsvuP0XsaqlXkAE_-7">
          <mxGeometry x="4.999999999999545" y="220" width="100" height="60" as="geometry" />
        </mxCell>
        <mxCell id="9cLpoxYKBSwU8mDdFY53-14" value="membayar&lt;div&gt;pesanan&lt;/div&gt;" style="verticalLabelPosition=middle;verticalAlign=middle;html=1;shape=trapezoid;perimeter=trapezoidPerimeter;whiteSpace=wrap;size=0.23;arcSize=10;flipV=1;labelPosition=center;align=center;" vertex="1" parent="r3WVHsvuP0XsaqlXkAE_-7">
          <mxGeometry x="10" y="310" width="100" height="60" as="geometry" />
        </mxCell>
        <mxCell id="9cLpoxYKBSwU8mDdFY53-19" value="struk" style="shape=document;whiteSpace=wrap;html=1;boundedLbl=1;strokeWidth=2;rounded=1;arcSize=11;" vertex="1" parent="r3WVHsvuP0XsaqlXkAE_-7">
          <mxGeometry x="15" y="420" width="90" height="50" as="geometry" />
        </mxCell>
        <mxCell id="9cLpoxYKBSwU8mDdFY53-34" value="" style="edgeStyle=orthogonalEdgeStyle;rounded=0;orthogonalLoop=1;jettySize=auto;html=1;" edge="1" parent="r3WVHsvuP0XsaqlXkAE_-7" source="9cLpoxYKBSwU8mDdFY53-29" target="9cLpoxYKBSwU8mDdFY53-33">
          <mxGeometry relative="1" as="geometry" />
        </mxCell>
        <mxCell id="9cLpoxYKBSwU8mDdFY53-29" value="&lt;div&gt;makanan&lt;/div&gt;&lt;div&gt;siap&lt;/div&gt;" style="verticalLabelPosition=middle;verticalAlign=middle;html=1;shape=trapezoid;perimeter=trapezoidPerimeter;whiteSpace=wrap;size=0.23;arcSize=10;flipV=1;labelPosition=center;align=center;" vertex="1" parent="r3WVHsvuP0XsaqlXkAE_-7">
          <mxGeometry x="15" y="600" width="100" height="60" as="geometry" />
        </mxCell>
        <mxCell id="9cLpoxYKBSwU8mDdFY53-33" value="selesai" style="ellipse;whiteSpace=wrap;html=1;" vertex="1" parent="r3WVHsvuP0XsaqlXkAE_-7">
          <mxGeometry x="27.499999999999545" y="690" width="75" height="50" as="geometry" />
        </mxCell>
        <mxCell id="r3WVHsvuP0XsaqlXkAE_-6" value="Pelayan" style="swimlane;startSize=20;html=1;" parent="r3WVHsvuP0XsaqlXkAE_-1" vertex="1">
          <mxGeometry x="130" y="20" width="125" height="740" as="geometry" />
        </mxCell>
        <mxCell id="9cLpoxYKBSwU8mDdFY53-1" value="menu" style="shape=document;whiteSpace=wrap;html=1;boundedLbl=1;" vertex="1" parent="r3WVHsvuP0XsaqlXkAE_-6">
          <mxGeometry x="14.999999999999545" y="120" width="90" height="60" as="geometry" />
        </mxCell>
        <mxCell id="9cLpoxYKBSwU8mDdFY53-4" value="" style="edgeStyle=orthogonalEdgeStyle;rounded=0;orthogonalLoop=1;jettySize=auto;html=1;" edge="1" parent="r3WVHsvuP0XsaqlXkAE_-6" source="9cLpoxYKBSwU8mDdFY53-3" target="9cLpoxYKBSwU8mDdFY53-1">
          <mxGeometry relative="1" as="geometry" />
        </mxCell>
        <mxCell id="9cLpoxYKBSwU8mDdFY53-3" value="mulai" style="ellipse;whiteSpace=wrap;html=1;" vertex="1" parent="r3WVHsvuP0XsaqlXkAE_-6">
          <mxGeometry x="22.499999999999545" y="40" width="75" height="50" as="geometry" />
        </mxCell>
        <mxCell id="9cLpoxYKBSwU8mDdFY53-15" value="" style="edgeStyle=orthogonalEdgeStyle;rounded=0;orthogonalLoop=1;jettySize=auto;html=1;" edge="1" parent="r3WVHsvuP0XsaqlXkAE_-6" source="9cLpoxYKBSwU8mDdFY53-9" target="9cLpoxYKBSwU8mDdFY53-12">
          <mxGeometry relative="1" as="geometry" />
        </mxCell>
        <mxCell id="9cLpoxYKBSwU8mDdFY53-9" value="mencatat&amp;nbsp;&lt;div&gt;pesanan&lt;/div&gt;" style="verticalLabelPosition=middle;verticalAlign=middle;html=1;shape=trapezoid;perimeter=trapezoidPerimeter;whiteSpace=wrap;size=0.23;arcSize=10;flipV=1;labelPosition=center;align=center;" vertex="1" parent="r3WVHsvuP0XsaqlXkAE_-6">
          <mxGeometry x="14.999999999999545" y="220" width="100" height="60" as="geometry" />
        </mxCell>
        <mxCell id="9cLpoxYKBSwU8mDdFY53-18" value="" style="edgeStyle=orthogonalEdgeStyle;rounded=0;orthogonalLoop=1;jettySize=auto;html=1;" edge="1" parent="r3WVHsvuP0XsaqlXkAE_-6" source="9cLpoxYKBSwU8mDdFY53-12" target="9cLpoxYKBSwU8mDdFY53-17">
          <mxGeometry relative="1" as="geometry" />
        </mxCell>
        <mxCell id="9cLpoxYKBSwU8mDdFY53-12" value="menghitung&lt;div&gt;total harga&lt;/div&gt;" style="html=1;strokeWidth=2;shape=manualInput;whiteSpace=wrap;rounded=1;size=26;arcSize=11;" vertex="1" parent="r3WVHsvuP0XsaqlXkAE_-6">
          <mxGeometry x="15" y="310" width="100" height="60" as="geometry" />
        </mxCell>
        <mxCell id="9cLpoxYKBSwU8mDdFY53-17" value="struk" style="shape=document;whiteSpace=wrap;html=1;boundedLbl=1;strokeWidth=2;rounded=1;arcSize=11;" vertex="1" parent="r3WVHsvuP0XsaqlXkAE_-6">
          <mxGeometry x="17" y="420" width="97" height="50" as="geometry" />
        </mxCell>
        <mxCell id="9cLpoxYKBSwU8mDdFY53-28" value="&lt;div&gt;makanan&lt;/div&gt;&lt;div&gt;siap&lt;/div&gt;" style="verticalLabelPosition=middle;verticalAlign=middle;html=1;shape=trapezoid;perimeter=trapezoidPerimeter;whiteSpace=wrap;size=0.23;arcSize=10;flipV=1;labelPosition=center;align=center;" vertex="1" parent="r3WVHsvuP0XsaqlXkAE_-6">
          <mxGeometry x="10" y="600" width="100" height="60" as="geometry" />
        </mxCell>
        <mxCell id="r3WVHsvuP0XsaqlXkAE_-2" value="koki" style="swimlane;startSize=20;html=1;" parent="r3WVHsvuP0XsaqlXkAE_-1" vertex="1">
          <mxGeometry x="255" y="20" width="120" height="740" as="geometry" />
        </mxCell>
        <mxCell id="9cLpoxYKBSwU8mDdFY53-24" value="" style="edgeStyle=orthogonalEdgeStyle;rounded=0;orthogonalLoop=1;jettySize=auto;html=1;" edge="1" parent="r3WVHsvuP0XsaqlXkAE_-2" source="9cLpoxYKBSwU8mDdFY53-21" target="9cLpoxYKBSwU8mDdFY53-23">
          <mxGeometry relative="1" as="geometry" />
        </mxCell>
        <mxCell id="9cLpoxYKBSwU8mDdFY53-21" value="catatan pesanan" style="shape=document;whiteSpace=wrap;html=1;boundedLbl=1;strokeWidth=2;rounded=1;arcSize=11;" vertex="1" parent="r3WVHsvuP0XsaqlXkAE_-2">
          <mxGeometry x="13" y="225" width="97" height="50" as="geometry" />
        </mxCell>
        <mxCell id="9cLpoxYKBSwU8mDdFY53-27" value="" style="edgeStyle=orthogonalEdgeStyle;rounded=0;orthogonalLoop=1;jettySize=auto;html=1;" edge="1" parent="r3WVHsvuP0XsaqlXkAE_-2" source="9cLpoxYKBSwU8mDdFY53-23" target="9cLpoxYKBSwU8mDdFY53-26">
          <mxGeometry relative="1" as="geometry" />
        </mxCell>
        <mxCell id="9cLpoxYKBSwU8mDdFY53-23" value="memasak&lt;div&gt;pesanan&lt;/div&gt;" style="verticalLabelPosition=middle;verticalAlign=middle;html=1;shape=trapezoid;perimeter=trapezoidPerimeter;whiteSpace=wrap;size=0.23;arcSize=10;flipV=1;labelPosition=center;align=center;" vertex="1" parent="r3WVHsvuP0XsaqlXkAE_-2">
          <mxGeometry x="11.5" y="390" width="100" height="60" as="geometry" />
        </mxCell>
        <mxCell id="9cLpoxYKBSwU8mDdFY53-26" value="&lt;div&gt;makanan&lt;/div&gt;&lt;div&gt;siap&lt;/div&gt;" style="verticalLabelPosition=middle;verticalAlign=middle;html=1;shape=trapezoid;perimeter=trapezoidPerimeter;whiteSpace=wrap;size=0.23;arcSize=10;flipV=1;labelPosition=center;align=center;" vertex="1" parent="r3WVHsvuP0XsaqlXkAE_-2">
          <mxGeometry x="11.5" y="600" width="100" height="60" as="geometry" />
        </mxCell>
        <mxCell id="9cLpoxYKBSwU8mDdFY53-6" value="" style="edgeStyle=orthogonalEdgeStyle;rounded=0;orthogonalLoop=1;jettySize=auto;html=1;" edge="1" parent="r3WVHsvuP0XsaqlXkAE_-1" source="9cLpoxYKBSwU8mDdFY53-1" target="9cLpoxYKBSwU8mDdFY53-5">
          <mxGeometry relative="1" as="geometry" />
        </mxCell>
        <mxCell id="9cLpoxYKBSwU8mDdFY53-10" value="" style="edgeStyle=orthogonalEdgeStyle;rounded=0;orthogonalLoop=1;jettySize=auto;html=1;" edge="1" parent="r3WVHsvuP0XsaqlXkAE_-1" source="9cLpoxYKBSwU8mDdFY53-7" target="9cLpoxYKBSwU8mDdFY53-9">
          <mxGeometry relative="1" as="geometry" />
        </mxCell>
        <mxCell id="9cLpoxYKBSwU8mDdFY53-20" value="" style="edgeStyle=orthogonalEdgeStyle;rounded=0;orthogonalLoop=1;jettySize=auto;html=1;" edge="1" parent="r3WVHsvuP0XsaqlXkAE_-1" source="9cLpoxYKBSwU8mDdFY53-17" target="9cLpoxYKBSwU8mDdFY53-19">
          <mxGeometry relative="1" as="geometry" />
        </mxCell>
        <mxCell id="9cLpoxYKBSwU8mDdFY53-30" value="" style="edgeStyle=orthogonalEdgeStyle;rounded=0;orthogonalLoop=1;jettySize=auto;html=1;" edge="1" parent="r3WVHsvuP0XsaqlXkAE_-1" source="9cLpoxYKBSwU8mDdFY53-26" target="9cLpoxYKBSwU8mDdFY53-28">
          <mxGeometry relative="1" as="geometry" />
        </mxCell>
        <mxCell id="9cLpoxYKBSwU8mDdFY53-31" value="" style="edgeStyle=orthogonalEdgeStyle;rounded=0;orthogonalLoop=1;jettySize=auto;html=1;" edge="1" parent="r3WVHsvuP0XsaqlXkAE_-1" source="9cLpoxYKBSwU8mDdFY53-28" target="9cLpoxYKBSwU8mDdFY53-29">
          <mxGeometry relative="1" as="geometry" />
        </mxCell>
        <mxCell id="9cLpoxYKBSwU8mDdFY53-32" value="" style="edgeStyle=orthogonalEdgeStyle;rounded=0;orthogonalLoop=1;jettySize=auto;html=1;" edge="1" parent="r3WVHsvuP0XsaqlXkAE_-1" source="9cLpoxYKBSwU8mDdFY53-9" target="9cLpoxYKBSwU8mDdFY53-21">
          <mxGeometry relative="1" as="geometry" />
        </mxCell>
        <mxCell id="9cLpoxYKBSwU8mDdFY53-35" value="" style="edgeStyle=orthogonalEdgeStyle;rounded=0;orthogonalLoop=1;jettySize=auto;html=1;" edge="1" parent="r3WVHsvuP0XsaqlXkAE_-1" source="9cLpoxYKBSwU8mDdFY53-12" target="9cLpoxYKBSwU8mDdFY53-14">
          <mxGeometry relative="1" as="geometry" />
        </mxCell>
      </root>
    </mxGraphModel>
  </diagram>
</mxfile>
